<?xml version="1.0" encoding="utf-8"?>
<!-- Generator: Adobe Illustrator 27.5.0, SVG Export Plug-In . SVG Version: 6.00 Build 0)  -->
<svg version="1.1" id="Layer_1" xmlns="http://www.w3.org/2000/svg" xmlns:xlink="http://www.w3.org/1999/xlink" x="0px" y="0px"
	 viewBox="0 0 1366 768" style="enable-background:new 0 0 1366 768;" xml:space="preserve">
<style type="text/css">
	.st0{fill:#A43E85;}
	.st1{fill:#FFFFFF;}
	.st2{font-family:'BlackadderITC-Regular';}
	.st3{font-size:31.1736px;}
	.st4{fill:none;}
	.st5{fill:#FFB948;}
	.st6{fill:none;stroke:#000000;stroke-miterlimit:10;}
	.st7{fill:#5755FF;}
	.st8{fill:#E79600;}
</style>
<path class="st0" d="M651.65,39.77"/>
<text transform="matrix(1 0 0 1 516.2529 690.6348)" class="st1 st2 st3">Small wins fuel transformative change</text>
<line class="st4" x1="359.64" y1="134.94" x2="366.4" y2="134.03"/>
<line class="st4" x1="753.11" y1="648.56" x2="759.88" y2="647.66"/>
<ellipse class="st1" cx="899.76" cy="612.33" rx="1.5" ry="0.8"/>
<line class="st1" x1="836.06" y1="674.12" x2="842.82" y2="673.22"/>
<ellipse class="st1" cx="993.07" cy="465.11" rx="1.5" ry="0.8"/>
<line class="st1" x1="900.82" y1="568.3" x2="907.59" y2="567.4"/>
<ellipse class="st1" cx="804.01" cy="649.41" rx="0.93" ry="0.49"/>
<ellipse class="st1" cx="547.64" cy="627.96" rx="0.7" ry="0.37"/>
<ellipse class="st1" cx="552.96" cy="587.48" rx="0.7" ry="0.37"/>
<line class="st1" x1="546.54" y1="616.04" x2="549.71" y2="615.62"/>
<line class="st1" x1="533.11" y1="599.43" x2="536.28" y2="599"/>
<ellipse class="st1" cx="1220.72" cy="643.46" rx="1.93" ry="1.83"/>
<ellipse class="st1" cx="1193.29" cy="679.48" rx="0.7" ry="0.37"/>
<ellipse class="st1" cx="1206.66" cy="660.1" rx="0.7" ry="0.37"/>
<ellipse class="st1" cx="1198.61" cy="639" rx="0.7" ry="0.37"/>
<line class="st1" x1="1192.19" y1="667.56" x2="1195.36" y2="667.14"/>
<ellipse class="st1" cx="1207.89" cy="654.01" rx="0.7" ry="0.37"/>
<ellipse class="st1" cx="1221.26" cy="634.63" rx="0.7" ry="0.37"/>
<line class="st1" x1="1178.76" y1="650.95" x2="1181.93" y2="650.52"/>
<ellipse class="st1" cx="1213.87" cy="622.22" rx="0.7" ry="0.37"/>
<ellipse class="st1" cx="736.02" cy="650.22" rx="0.7" ry="0.37"/>
<ellipse class="st1" cx="883.15" cy="606.8" rx="1.93" ry="1.83"/>
<ellipse class="st1" cx="883.69" cy="597.97" rx="0.7" ry="0.37"/>
<ellipse class="st1" cx="876.31" cy="585.56" rx="0.7" ry="0.37"/>
<g>
	<path class="st5" d="M706.05,135.49c-70.16,0-127.03,56.87-127.03,127.03c0,49.08,27.84,91.66,68.59,112.81
		c0.67-1.48,1.34-2.96,2.01-4.44c19.04-38.88,38.08-77.76,57.12-116.64l51.36,98.61c1.56,3.36,3.11,6.73,4.67,10.09
		c1.89,3.42,3.78,6.84,5.66,10.25c38.6-21.8,64.66-63.19,64.66-110.68C833.08,192.36,776.21,135.49,706.05,135.49z M711.02,253.83
		c-2.74,0.89-6.14,0.25-6.55-1.05c-0.56-1.8,5.21-2.87,7.46-8.12c0,0,2.84-6.61-3.8-15.96c-0.04-0.05-0.34-0.47-0.5-0.41
		c-0.68,0.26,3.77,8,1.08,12.24c-1.1,1.73-2.99,2.25-6.42,3.21c-3.4,0.95-14.08,1.02-10.55,0.92c-0.34,0.02-0.79-0.09-1.33-0.52
		c-0.15-0.06-0.3-0.12-0.44-0.18c-0.35,1.78,1.59,6.6-4.09,7.77c-2.39,0.49-2.71-5.75-3.21-8.3c-0.58-2.98,1.09-5.91,2.25-6.77
		c0.1-0.27,0.22-0.52,0.4-0.72c0.62-0.69,1.59-0.65,7.34,0c4.97,0.56,6.08,0.73,6.88,0c1.33-1.22,0.54-3.84,0-6.42
		c-0.23-1.09-0.36-1.9-0.36-1.93c-0.8-3.47-1.09-6.99-1.38-10.2c-0.49-5.36-0.98-9.86-3.89-11.85c0,0,0,0,0,0
		c-0.35-0.23-0.86-0.6-1.38-1.15c-0.63-0.67-0.98-1.28-1.47-2.19c-0.2-0.37-0.39-0.73-0.58-1.09c-0.02,0.1-0.05,0.19-0.1,0.21
		c-0.13,0.04-0.52-0.91-1.05-2.44c0,0,0,0,0,0l0,0c-0.78-2.25-1.88-5.78-2.98-9.41c-0.2-0.66-0.39-1.38-0.53-2.16
		c-0.04-0.24-0.08-0.47-0.11-0.69c-1.78-3.98-1.88-5.32-1.44-5.62c0.42-0.29,1.3,0.38,1.95-0.11c0.51-0.39,0.36-1.11,0.8-1.26
		c0.38-0.13,0.83,0.29,1.15,0.57c0.74,0.67,0.84,1.27,1.61,2.41c0.28,0.43,0.54,0.75,0.72,0.96c0.02,0.03,0.04,0.07,0.06,0.09
		c0.37,0.59,0.69,1.3,1.05,2.38c3.31,9.95,4.15,11,5.05,11.69c1.71,1.3,3.82,1.43,5.34,1.29c-2-0.06-3.57-1.06-3.74-1.17
		c-2.53-1.67-3.5-4.75-3.1-7.34c0.47-3.01,2.94-6.38,6.54-6.42c3.55-0.04,6.05,3.19,6.65,6.08c0.61,2.96-0.6,6.46-3.22,8.03
		c2.83-1.35,4.29-3.99,4.95-5.22c2.18-4.1,1.98-8.84,1.8-12.19c-0.13-2.37-0.24-4.04,0.52-4.25c0.36-0.1,0.97,0.11,1.04,0.13
		c1.09,0.38,1.61,1.43,1.79,1.8c0.63,1.3,0.47,2.59,0.44,2.9c-0.06,0.51-0.09,1.11-0.12,1.77c-0.21,5.23,0.35,14.59-1.34,17.49
		c-0.71,1.21-1.33,1.82-1.33,1.82c-0.88,0.9-1.49,1-2.34,2.76c-0.79,1.63-0.43,6.36,0.17,10.33c0.39,2.57,0.87,4.83,1.21,5.72
		c3.48,9.14,6.37,8.62,7.34,14.22C720.57,242.99,716.79,251.96,711.02,253.83z M798.81,223.11c3.23,2.47,4.23,1.76,10.55,5.5
		c3.03,1.8,4.54,2.69,5.96,4.13c1.63,1.65,4.19,4.96,5.04,11.01h-83.92c0.17-1.56,0.86-6.11,4.59-10.09
		c4.64-4.97,10.61-5.43,11.92-5.5c1.99-4.28,3.97-8.56,5.96-12.84c1.1-1.48,2.88-3.56,5.5-5.5c2.18-1.62,5.96-4.42,10.71-4.63
		c6.45-0.28,11.49,4.39,12.16,3.85c-1.23-1.59-1.83-2.4-1.78-2.44c0.09-0.07,2.15,1.93,1.82,2.41c-0.01,0.01-0.03,0.01-0.05,0.02
		c0.99,1.28,2.39,3.06,4.19,5.36C795.52,219.56,797.54,222.14,798.81,223.11z"/>
	<path class="st1" d="M705.57,256.45c-19.48,39.44-38.96,78.89-58.44,118.33c17.72-3.19,38.92-5.7,62.88-5.96
		c21.82-0.24,41.33,1.44,57.94,3.83C747.16,333.91,726.37,295.18,705.57,256.45z"/>
	<path class="st6" d="M693.1,243.92c0-0.01-0.01-0.01-0.02-0.02c0.02,0.01,0.01,0.02-0.01,0.02
		C693.08,243.93,693.1,243.93,693.1,243.92z"/>
	<path class="st6" d="M692.44,243.89c0.03,0,0.05,0.01,0.08,0.01C692.5,243.9,692.47,243.9,692.44,243.89
		C692.44,243.89,692.44,243.89,692.44,243.89z"/>
	<path class="st4" d="M711.46,220.72c-0.34-0.89-0.82-3.15-1.21-5.72c-0.6-3.97-0.96-8.7-0.17-10.33c0.85-1.76,1.47-1.86,2.34-2.76
		c0,0,0.62-0.61,1.33-1.82c1.69-2.9,1.13-12.25,1.34-17.49c0.03-0.66,0.06-1.26,0.12-1.77c0.03-0.31,0.19-1.59-0.44-2.9
		c-0.18-0.37-0.7-1.42-1.79-1.8c-0.07-0.02-0.68-0.23-1.04-0.13c-0.76,0.21-0.64,1.88-0.52,4.25c0.18,3.34,0.38,8.09-1.8,12.19
		c-0.66,1.24-2.12,3.87-4.95,5.22c2.62-1.58,3.83-5.07,3.22-8.03c-0.6-2.89-3.1-6.12-6.65-6.08c-3.59,0.04-6.07,3.41-6.54,6.42
		c-0.4,2.59,0.56,5.66,3.1,7.34c0.17,0.11,1.74,1.12,3.74,1.17c-1.52,0.14-3.63,0.02-5.34-1.29c-0.9-0.69-1.74-1.74-5.05-11.69
		c-0.36-1.09-0.68-1.79-1.05-2.38c-0.02-0.03-0.04-0.06-0.06-0.09c-0.17-0.21-0.43-0.54-0.72-0.96c-0.76-1.14-0.87-1.74-1.61-2.41
		c-0.32-0.29-0.77-0.7-1.15-0.57c-0.44,0.15-0.29,0.87-0.8,1.26c-0.65,0.5-1.53-0.17-1.95,0.11c-0.44,0.3-0.34,1.64,1.44,5.62
		c0.03,0.23,0.07,0.46,0.11,0.69c0.14,0.78,0.32,1.5,0.53,2.16c1.1,3.63,2.19,7.16,2.98,9.41l0,0c0,0,0,0,0,0
		c0.53,1.53,0.92,2.47,1.05,2.44c0.06-0.01,0.08-0.11,0.1-0.21c0.19,0.36,0.38,0.72,0.58,1.09c0.49,0.91,0.83,1.52,1.47,2.19
		c0.52,0.54,1.02,0.91,1.38,1.15c0,0,0,0,0,0c2.91,1.99,3.4,6.49,3.89,11.85c0.29,3.21,0.58,6.72,1.38,10.2
		c0.01,0.04,0.13,0.84,0.36,1.93c0.54,2.58,1.33,5.2,0,6.42c-0.8,0.73-1.91,0.56-6.88,0c-5.75-0.65-6.72-0.69-7.34,0
		c-0.18,0.2-0.3,0.45-0.4,0.72c-1.17,0.86-2.83,3.79-2.25,6.77c0.5,2.55,0.82,8.79,3.21,8.3c5.68-1.16,3.74-5.98,4.09-7.77
		c0.14,0.06,0.29,0.12,0.44,0.18c0.54,0.43,0.99,0.54,1.33,0.52c-3.53,0.11,7.15,0.04,10.55-0.92c3.43-0.96,5.32-1.48,6.42-3.21
		c2.68-4.24-1.76-11.97-1.08-12.24c0.16-0.06,0.46,0.35,0.5,0.41c6.64,9.35,3.8,15.96,3.8,15.96c-2.26,5.25-8.02,6.32-7.46,8.12
		c0.4,1.31,3.8,1.95,6.55,1.05c5.77-1.88,9.56-10.84,8.25-18.34C717.83,229.34,714.94,229.86,711.46,220.72z"/>
	<path class="st1" d="M786.81,208.48c-0.67,0.54-5.71-4.13-12.16-3.85c-4.75,0.2-8.53,3.01-10.71,4.63c-2.62,1.95-4.4,4.02-5.5,5.5
		c-1.99,4.28-3.97,8.56-5.96,12.84c-1.31,0.07-7.28,0.54-11.92,5.5c-3.72,3.98-4.42,8.53-4.59,10.09h83.92
		c-0.85-6.04-3.41-9.36-5.04-11.01c-1.42-1.43-2.93-2.33-5.96-4.13c-6.32-3.75-7.32-3.03-10.55-5.5c-1.27-0.97-3.29-3.55-7.34-8.71
		C789.19,211.54,787.8,209.76,786.81,208.48z"/>
	<path class="st4" d="M711.46,220.72c-0.34-0.89-0.82-3.15-1.21-5.72c-0.6-3.97-0.96-8.7-0.17-10.33c0.85-1.76,1.47-1.86,2.34-2.76
		c0,0,0.62-0.61,1.33-1.82c1.69-2.9,1.13-12.25,1.34-17.49c0.03-0.66,0.06-1.26,0.12-1.77c0.03-0.31,0.19-1.59-0.44-2.9
		c-0.18-0.37-0.7-1.42-1.79-1.8c-0.07-0.02-0.68-0.23-1.04-0.13c-0.76,0.21-0.64,1.88-0.52,4.25c0.18,3.34,0.38,8.09-1.8,12.19
		c-0.66,1.24-2.12,3.87-4.95,5.22c2.62-1.58,3.83-5.07,3.22-8.03c-0.6-2.89-3.1-6.12-6.65-6.08c-3.59,0.04-6.07,3.41-6.54,6.42
		c-0.4,2.59,0.56,5.66,3.1,7.34c0.17,0.11,1.74,1.12,3.74,1.17c-1.52,0.14-3.63,0.02-5.34-1.29c-0.9-0.69-1.74-1.74-5.05-11.69
		c-0.36-1.09-0.68-1.79-1.05-2.38c-0.02-0.03-0.04-0.06-0.06-0.09c-0.17-0.21-0.43-0.54-0.72-0.96c-0.76-1.14-0.87-1.74-1.61-2.41
		c-0.32-0.29-0.77-0.7-1.15-0.57c-0.44,0.15-0.29,0.87-0.8,1.26c-0.65,0.5-1.53-0.17-1.95,0.11c-0.44,0.3-0.34,1.64,1.44,5.62
		c0.03,0.23,0.07,0.46,0.11,0.69c0.14,0.78,0.32,1.5,0.53,2.16c1.1,3.63,2.19,7.16,2.98,9.41l0,0c0,0,0,0,0,0
		c0.53,1.53,0.92,2.47,1.05,2.44c0.06-0.01,0.08-0.11,0.1-0.21c0.19,0.36,0.38,0.72,0.58,1.09c0.49,0.91,0.83,1.52,1.47,2.19
		c0.52,0.54,1.02,0.91,1.38,1.15c0,0,0,0,0,0c2.91,1.99,3.4,6.49,3.89,11.85c0.29,3.21,0.58,6.72,1.38,10.2
		c0.01,0.04,0.13,0.84,0.36,1.93c0.54,2.58,1.33,5.2,0,6.42c-0.8,0.73-1.91,0.56-6.88,0c-5.75-0.65-6.72-0.69-7.34,0
		c-0.18,0.2-0.3,0.45-0.4,0.72c-1.17,0.86-2.83,3.79-2.25,6.77c0.5,2.55,0.82,8.79,3.21,8.3c5.68-1.16,3.74-5.98,4.09-7.77
		c0.14,0.06,0.29,0.12,0.44,0.18c0.54,0.43,0.99,0.54,1.33,0.52c-3.53,0.11,7.15,0.04,10.55-0.92c3.43-0.96,5.32-1.48,6.42-3.21
		c2.68-4.24-1.76-11.97-1.08-12.24c0.16-0.06,0.46,0.35,0.5,0.41c6.64,9.35,3.8,15.96,3.8,15.96c-2.26,5.25-8.02,6.32-7.46,8.12
		c0.4,1.31,3.8,1.95,6.55,1.05c5.77-1.88,9.56-10.84,8.25-18.34C717.83,229.34,714.94,229.86,711.46,220.72z"/>
	<path class="st1" d="M670.44,262.43c-2.35-1.43-3.17-0.98-8.25-2.75c-3.27-1.14-4.9-1.71-6.42-2.75c-1.57-1.08-4.37-3.55-5.96-9.17
		c-1.72-1.18-5.17-3.2-9.95-3.63c-1.57-0.14-5.2-0.43-9.31,1.34c-1.92,0.83-5.56,2.39-7.34,5.96c-1.51,3.03-0.17,4.48-1.83,6.42
		c-1.99,2.32-4.37,0.82-7.34,3.21c-2.57,2.07-1.89,4.09-4.13,5.96c-1.4,1.17-3.98,2.32-9.17,1.38c0,1.83,0,3.67,0,5.5h72.46
		c0.57-0.55,2.36-2.45,2.29-5.04C675.39,265.42,671.86,263.3,670.44,262.43z"/>
	<path class="st5" d="M785.03,206.05c-0.05,0.04,0.55,0.85,1.78,2.44c0.01-0.01,0.04-0.01,0.05-0.02
		C787.18,207.98,785.12,205.97,785.03,206.05z"/>
	<path d="M854.87,543.1c-0.4-1.14-2.2-6.36-4.89-13.36c-4.86-12.62-9.25-22.22-10.65-25.18c-7.17-15.19-14.35-22.61-22.93-34.85
		c-8.09-11.54-15.18-26.96-29.35-57.78c-4.77-10.38-10.41-23.1-19.1-39.28c-8.69,6.35-14.12,6.61-17.59,5.34
		c-7.24-2.65-7.56-12.56-14.68-13.76c-4.1-0.69-7.9,1.95-11.85,4.69c-8.01,5.56-8.74,11.11-12.01,10.89
		c-5.31-0.37-4.95-15.1-12.82-17.42c-4.79-1.41-10.36,2.44-13.92,4.9c-7.22,4.99-8.57,10.24-11.76,9.77
		c-3.95-0.59-3.47-8.86-8.25-11.01c-2.75-1.23-7.81-0.69-17.93,8.72c-14.57,32.59-31.72,77.23-45.05,96.84
		c-1.34,1.98-8.14,11.9-16.38,26.13c-2.71,4.69-5.61,9.96-8.69,15.99c-10.35,20.26-15.75,35.33-20.18,46.78
		c-7.75,20.01-20.01,48.24-39.44,82.55c126.57-0.61,253.15-1.22,379.72-1.83C869.07,579.07,858.5,553.52,854.87,543.1z"/>
	<path d="M692.2,235.4c-5.75-0.65-6.72-0.69-7.34,0c-0.18,0.2-0.3,0.45-0.4,0.72c-0.07,0.29-0.13,0.66-0.15,1.09
		c0,0.02,0,0.04,0,0.06c0,0.14,0,0.28,0,0.43c0.26,0.32,0.67,0.43,0.76,0.89c0.08,0.4-0.2,0.56-0.12,1.16
		c0.03,0.24,0.11,0.46,0.21,0.67c0.09,0.19,0.2,0.36,0.34,0.53c0.84,1.07,2.5,1.82,4.05,2.3c0.24-0.75,1.07-0.76,3.53,0.66
		c0.01,0.01,0.02,0.01,0.02,0.02c0,0-0.02,0-0.02,0.01c-0.01,0-0.02,0.01-0.04,0.01c-0.02,0-0.05,0-0.09,0c-0.03,0-0.06,0-0.1,0
		c-0.05,0-0.11-0.01-0.17-0.02c-0.05-0.01-0.1-0.01-0.16-0.02c-0.03,0-0.05-0.01-0.08-0.01c-0.38,0.07-0.84,0.2-1.16,0.22
		c-0.46,0.03-0.71,0.02-0.71,0.03c0,0.04,5.92,1.55,11.73-0.4c2.33-0.78,4.72-1.58,5.94-3.76c2.57-4.57-1.75-11.98-1.08-12.24
		c0.16-0.06,0.46,0.35,0.5,0.41c6.64,9.35,3.8,15.96,3.8,15.96c-2.26,5.25-8.02,6.32-7.46,8.12c0.42,1.35,3.9,1.72,6.55,1.05
		c4.95-1.25,7.2-6.22,7.72-7.37c2-4.41,1.84-9.83-0.29-13.77c-0.93-1.74-1.5-2.03-3.68-5.54c-0.87-1.41-1.83-3.24-2.84-5.88
		c-0.34-0.89-0.82-3.15-1.21-5.72c-4.31,0.61-8.61,1.23-12.92,1.84c0.29,3.21,0.58,6.72,1.38,10.2c0.01,0.04,0.13,0.84,0.36,1.93
		c0.54,2.58,1.33,5.2,0,6.42C698.28,236.13,697.17,235.95,692.2,235.4z"/>
	<path d="M684.33,237.91c-0.01-0.07-0.01-0.14-0.01-0.21c-0.01-0.01-0.01-0.02-0.02-0.03C684.31,237.75,684.32,237.83,684.33,237.91
		z"/>
	<path d="M691.28,244.11c-0.5-0.19-0.93-0.36-1.33-0.52C690.49,244.02,690.94,244.13,691.28,244.11z"/>
	<path d="M689.51,243.41c0.14,0.06,0.29,0.12,0.44,0.18c-0.13-0.1-0.26-0.2-0.4-0.35C689.53,243.3,689.52,243.35,689.51,243.41z"/>
	<path d="M692.28,243.87c0.05,0.01,0.11,0.02,0.16,0.02c0,0,0,0,0.01,0C692.39,243.89,692.34,243.88,692.28,243.87z"/>
	<path d="M692.28,243.87c-0.07-0.01-0.13-0.02-0.21-0.03c-0.09-0.01-0.19-0.03-0.29-0.05c-0.08-0.01-0.16-0.03-0.24-0.04
		c-0.11-0.02-0.23-0.05-0.35-0.07c-0.09-0.02-0.17-0.04-0.26-0.06c-0.14-0.03-0.28-0.07-0.42-0.1c-0.08-0.02-0.16-0.04-0.24-0.06
		c-0.23-0.06-0.46-0.13-0.7-0.2c0.14,0.14,0.27,0.24,0.4,0.35c0.4,0.16,0.83,0.33,1.33,0.52c0.32-0.02,0.77-0.15,1.16-0.22
		C692.39,243.89,692.33,243.88,692.28,243.87z"/>
	<path class="st7" d="M688.39,243.26c0.29,0.04,0.48,0.08,0.47,0.13c-0.03,0.23-3.1,0.11-3.1,0
		C685.77,243.34,686.78,243.29,688.39,243.26c-1.09-0.16-3.75-0.41-4.57-2.04c-0.4-0.8-0.05-2.06,0.34-3.78
		c-0.09-0.26-0.1-0.67,0.3-1.32c-1.17,0.86-2.83,3.79-2.25,6.77c0.5,2.55,0.82,8.79,3.21,8.3c5.68-1.16,3.74-5.98,4.09-7.77
		c-0.14-0.06-0.26-0.11-0.39-0.16C688.87,243.25,688.62,243.26,688.39,243.26z"/>
	<path class="st7" d="M684.36,238.14c-0.01-0.05-0.02-0.09-0.02-0.14c0-0.03,0-0.06-0.01-0.09c-0.01-0.08-0.02-0.16-0.03-0.24
		c-0.05-0.07-0.11-0.14-0.14-0.23c-0.39,1.72-0.75,2.98-0.34,3.78c0.82,1.64,3.48,1.89,4.57,2.04c0.23,0,0.48-0.01,0.74-0.01
		c-2.42-1.01-2.89-1.44-2.89-1.44c-0.27-0.25-0.51-0.55-0.73-0.87c-0.13-0.17-0.25-0.35-0.34-0.53c0.01,0.01-0.61-0.95-0.8-2.23
		C684.37,238.17,684.36,238.16,684.36,238.14z"/>
	<path class="st7" d="M688.86,243.4c0.01-0.05-0.18-0.09-0.47-0.13c-1.61,0.03-2.62,0.07-2.62,0.13
		C685.76,243.5,688.83,243.62,688.86,243.4z"/>
	<path class="st6" d="M692.44,243.89c0.02,0,0.05,0.01,0.08,0.01c0.06,0.01,0.11,0.01,0.16,0.02c0.06,0.01,0.12,0.01,0.17,0.02
		c0.04,0,0.07,0,0.1,0c0.04,0,0.07,0,0.09,0c0.02,0,0.03,0,0.04-0.01c0.01-0.01,0.03-0.01,0.01-0.02
		C692.96,243.82,692.72,243.84,692.44,243.89z"/>
	<path d="M690.5,243.51c0.14,0.04,0.29,0.07,0.42,0.1c0.09,0.02,0.17,0.04,0.26,0.06c0.12,0.03,0.24,0.05,0.35,0.07
		c0.09,0.02,0.16,0.03,0.24,0.04c0.1,0.02,0.2,0.04,0.29,0.05c0.07,0.01,0.14,0.02,0.21,0.03c0.06,0.01,0.11,0.02,0.16,0.02
		c0.27-0.05,0.52-0.07,0.64,0.01c-2.46-1.42-3.29-1.41-3.53-0.66c0.24,0.07,0.47,0.14,0.7,0.2
		C690.34,243.47,690.42,243.49,690.5,243.51z"/>
	<path d="M684.36,238.14c0,0.02,0,0.03,0.01,0.05c0.13,0.75,0.4,1.52,0.8,2.23c-0.1-0.21-0.17-0.44-0.21-0.67
		c-0.09-0.6,0.19-0.76,0.12-1.16c-0.09-0.46-0.5-0.57-0.76-0.89c0,0.07,0.01,0.14,0.01,0.21
		C684.34,237.98,684.35,238.06,684.36,238.14z"/>
	<path d="M684.32,237.2c0.02-0.43,0.08-0.8,0.15-1.09c-0.06,0.18-0.1,0.37-0.13,0.57C684.31,236.85,684.32,237.03,684.32,237.2z"/>
	<path d="M684.32,237.69c-0.01-0.15-0.01-0.29,0-0.43c0,0.14-0.02,0.26-0.01,0.4C684.31,237.68,684.32,237.69,684.32,237.69z"/>
	<path class="st7" d="M684.16,237.44l0.17-0.75c0.03-0.2,0.07-0.39,0.13-0.57C684.06,236.76,684.07,237.17,684.16,237.44z"/>
	<path class="st7" d="M685.17,240.41c-0.4-0.7-0.67-1.48-0.8-2.23C684.56,239.46,685.18,240.42,685.17,240.41z"/>
	<path class="st7" d="M684.36,238.14c-0.01-0.08-0.02-0.16-0.03-0.23c0,0.03,0,0.06,0.01,0.09
		C684.34,238.05,684.35,238.09,684.36,238.14z"/>
	<path class="st7" d="M684.16,237.44c0.03,0.1,0.09,0.16,0.14,0.23c-0.01-0.14,0.01-0.27,0.01-0.4c0-0.02,0-0.04,0-0.06
		c0-0.17-0.01-0.36,0.01-0.52L684.16,237.44z"/>
	<path class="st7" d="M684.32,237.27c0-0.02,0-0.04,0-0.06C684.32,237.22,684.32,237.24,684.32,237.27z"/>
	<path class="st6" d="M689.12,243.25c0.13,0.05,0.24,0.1,0.39,0.16c0.01-0.06,0.02-0.12,0.04-0.17
		C689.4,243.25,689.27,243.25,689.12,243.25z"/>
	<path d="M689.12,243.25c0.14,0,0.28,0,0.43-0.01c-1.55-0.48-3.2-1.23-4.05-2.3c0.22,0.32,0.46,0.62,0.73,0.87
		C686.24,241.82,686.71,242.24,689.12,243.25z"/>
	<path class="st8" d="M715.21,180.83c0.03-0.31,0.19-1.59-0.44-2.9c-0.18-0.37-0.7-1.42-1.79-1.8c-0.07-0.02-0.68-0.23-1.04-0.13
		c-0.76,0.21-0.64,1.88-0.52,4.25l3.67,2.35C715.12,181.94,715.16,181.34,715.21,180.83z"/>
	<path class="st8" d="M689.32,182.06c-0.76-1.14-0.87-1.74-1.61-2.41c-0.32-0.29-0.77-0.7-1.15-0.57c-0.44,0.15-0.29,0.87-0.8,1.26
		c-0.65,0.5-1.53-0.17-1.95,0.11c-0.44,0.3-0.34,1.64,1.44,5.62l4.78-3.06C689.86,182.81,689.6,182.49,689.32,182.06z"/>
	<path class="st0" d="M710.08,204.67c0.85-1.76,1.47-1.86,2.34-2.76c0,0,0.62-0.61,1.33-1.82c1.69-2.9,1.13-12.25,1.34-17.49
		l-3.67-2.35c0.18,3.34,0.38,8.09-1.8,12.19c-0.66,1.24-2.12,3.87-4.95,5.22c-0.29,0.17-0.59,0.33-0.91,0.45
		c-0.77,0.3-1.52,0.39-2.23,0.37c-1.52,0.14-3.63,0.02-5.34-1.29c-0.9-0.69-1.74-1.74-5.05-11.69c-0.36-1.09-0.68-1.79-1.05-2.38
		c-0.02-0.03-0.04-0.06-0.06-0.09l-4.78,3.06c0.03,0.23,0.07,0.46,0.11,0.69c0.14,0.78,0.32,1.5,0.53,2.16
		c1.1,3.63,2.19,7.16,2.98,9.41c0.45,0.34,1.16,0.99,1.18,1.85c0,0.03,0,0.22-0.03,0.38c0.19,0.36,0.38,0.72,0.58,1.09
		c0.49,0.91,0.83,1.52,1.47,2.19c0.52,0.54,1.02,0.91,1.38,1.15c0,0,0,0,0,0c2.91,1.99,3.4,6.49,3.89,11.85
		c4.31-0.61,8.61-1.23,12.92-1.84C709.65,211.03,709.29,206.3,710.08,204.67z"/>
	<path class="st0" d="M688.87,198.34C688.87,198.34,688.87,198.34,688.87,198.34c0.36,0.72,0.75,1.47,1.15,2.23
		c0.03-0.16,0.03-0.35,0.03-0.38C690.03,199.33,689.33,198.68,688.87,198.34z"/>
	<path class="st0" d="M689.92,200.78c0.06-0.01,0.08-0.11,0.1-0.21c-0.4-0.76-0.79-1.51-1.15-2.23
		C689.4,199.87,689.79,200.81,689.92,200.78z"/>
	<polygon class="st0" points="688.87,198.34 688.87,198.34 688.87,198.34 	"/>
	<path class="st8" d="M704.67,197.66c2.62-1.58,3.83-5.07,3.22-8.03c-0.6-2.89-3.1-6.12-6.65-6.08c-3.59,0.04-6.07,3.41-6.54,6.42
		c-0.4,2.59,0.56,5.66,3.1,7.34c0.17,0.11,1.74,1.12,3.74,1.17c1.06-0.1,1.84-0.32,2-0.37
		C703.94,197.99,704.31,197.83,704.67,197.66z"/>
	<path class="st8" d="M704.67,197.66c-0.36,0.17-0.73,0.33-1.14,0.45c-0.15,0.05-0.93,0.27-2,0.37c0.7,0.02,1.46-0.07,2.23-0.37
		C704.09,197.99,704.38,197.83,704.67,197.66z"/>
	<ellipse class="st1" cx="727.31" cy="485.53" rx="4.13" ry="3.9"/>
	<ellipse class="st1" cx="728.81" cy="541.71" rx="1.5" ry="0.8"/>
	<ellipse class="st1" cx="807.34" cy="499.52" rx="1.5" ry="0.8"/>
	<ellipse class="st1" cx="778.8" cy="540.91" rx="1.5" ry="0.8"/>
	<ellipse class="st1" cx="807.34" cy="499.52" rx="1.5" ry="0.8"/>
	<ellipse class="st1" cx="807.34" cy="499.52" rx="1.5" ry="0.8"/>
	<path class="st1" d="M763.2,580.69"/>
	<line class="st4" x1="632.96" y1="573.35" x2="639.73" y2="572.45"/>
	<line class="st1" x1="686.38" y1="466.04" x2="693.15" y2="465.14"/>
	<line class="st4" x1="601.78" y1="555.92" x2="608.54" y2="555.02"/>
	<line class="st1" x1="715.09" y1="602.7" x2="721.86" y2="601.8"/>
	<ellipse class="st1" cx="618.74" cy="563.26" rx="1.5" ry="0.8"/>
	<ellipse class="st1" cx="668.73" cy="562.46" rx="1.5" ry="0.8"/>
	<ellipse class="st1" cx="697.28" cy="521.07" rx="1.5" ry="0.8"/>
	<line class="st1" x1="576.32" y1="487.59" x2="583.08" y2="486.69"/>
	<line class="st1" x1="605.03" y1="624.25" x2="611.79" y2="623.35"/>
	<ellipse class="st1" cx="737.69" cy="569.46" rx="1.5" ry="0.8"/>
	<ellipse class="st1" cx="787.68" cy="568.66" rx="1.5" ry="0.8"/>
	<ellipse class="st1" cx="816.23" cy="527.27" rx="1.5" ry="0.8"/>
	<line class="st1" x1="695.27" y1="493.79" x2="702.03" y2="492.89"/>
	<line class="st1" x1="723.98" y1="630.45" x2="730.74" y2="629.55"/>
	<ellipse class="st1" cx="680.1" cy="476.01" rx="1.5" ry="0.8"/>
	<ellipse class="st1" cx="730.09" cy="475.22" rx="1.5" ry="0.8"/>
	<ellipse class="st1" cx="758.64" cy="433.82" rx="1.5" ry="0.8"/>
	<line class="st1" x1="637.67" y1="400.34" x2="644.44" y2="399.44"/>
	<line class="st1" x1="666.39" y1="537.01" x2="673.15" y2="536.1"/>
	<ellipse class="st1" cx="568.76" cy="564.06" rx="1.5" ry="0.8"/>
	<ellipse class="st1" cx="618.74" cy="563.26" rx="1.5" ry="0.8"/>
	<ellipse class="st1" cx="647.29" cy="521.87" rx="1.5" ry="0.8"/>
	<line class="st1" x1="620.27" y1="365.31" x2="627.04" y2="364.41"/>
	<line class="st1" x1="555.04" y1="625.05" x2="561.8" y2="624.15"/>
	<ellipse class="st1" cx="649.93" cy="508.86" rx="1.5" ry="0.8"/>
	<ellipse class="st1" cx="699.91" cy="508.06" rx="1.5" ry="0.8"/>
	<ellipse class="st1" cx="728.46" cy="466.67" rx="1.5" ry="0.8"/>
	<line class="st1" x1="607.5" y1="433.19" x2="614.26" y2="432.29"/>
	<line class="st1" x1="636.21" y1="569.85" x2="642.98" y2="568.95"/>
	<ellipse class="st1" cx="798.92" cy="575.65" rx="1.5" ry="0.8"/>
	<ellipse class="st1" cx="848.91" cy="574.86" rx="1.5" ry="0.8"/>
	<ellipse class="st1" cx="625.62" cy="467.14" rx="1.5" ry="0.8"/>
	<line class="st1" x1="756.5" y1="499.98" x2="763.26" y2="499.08"/>
	<line class="st1" x1="785.21" y1="636.65" x2="791.97" y2="635.75"/>
	<ellipse class="st1" cx="849.77" cy="613.13" rx="1.5" ry="0.8"/>
	<ellipse class="st1" cx="582.52" cy="627.69" rx="1.5" ry="0.8"/>
	<line class="st1" x1="807.34" y1="537.46" x2="814.11" y2="536.56"/>
	<ellipse class="st1" cx="781.8" cy="540.91" rx="1.5" ry="0.8"/>
	<ellipse class="st1" cx="831.78" cy="540.11" rx="1.5" ry="0.8"/>
	<ellipse class="st1" cx="860.33" cy="498.72" rx="1.5" ry="0.8"/>
	<line class="st1" x1="739.37" y1="465.24" x2="746.13" y2="464.34"/>
	<line class="st1" x1="768.08" y1="601.9" x2="774.85" y2="601"/>
	<ellipse class="st1" cx="601.78" cy="540.91" rx="1.5" ry="0.8"/>
	<ellipse class="st1" cx="618.74" cy="563.26" rx="1.5" ry="0.8"/>
	<ellipse class="st1" cx="647.29" cy="521.87" rx="1.5" ry="0.8"/>
	<line class="st1" x1="620.27" y1="365.31" x2="627.04" y2="364.41"/>
	<line class="st1" x1="555.04" y1="625.05" x2="561.8" y2="624.15"/>
	<ellipse class="st1" cx="651.43" cy="440.53" rx="1.5" ry="0.8"/>
	<ellipse class="st1" cx="701.41" cy="439.73" rx="1.5" ry="0.8"/>
	<ellipse class="st1" cx="729.96" cy="398.34" rx="1.5" ry="0.8"/>
	<line class="st1" x1="609" y1="364.86" x2="615.76" y2="363.96"/>
	<line class="st1" x1="637.71" y1="501.52" x2="644.48" y2="500.62"/>
	<ellipse class="st1" cx="662.7" cy="440.98" rx="1.5" ry="0.8"/>
	<ellipse class="st1" cx="712.69" cy="440.18" rx="1.5" ry="0.8"/>
	<line class="st1" x1="620.27" y1="365.31" x2="627.04" y2="364.41"/>
	<ellipse class="st1" cx="679.35" cy="608.48" rx="4.13" ry="3.9"/>
	<ellipse class="st1" cx="610.88" cy="498.72" rx="4.13" ry="3.9"/>
	<path class="st7" d="M716.94,255.46c-0.59,2.21-4.67,2.84-6.8,2.87c-0.6,0.01-5.78,0.07-7.19-2.98c-0.28-0.6-0.34-1.17-0.34-1.61
		c4.3,0.93,6.61,0.32,7.93-0.46c0.35-0.21,1.37-0.86,2.82-1c0.67-0.07,2.06-0.2,2.93,0.7C716.91,253.61,717.16,254.64,716.94,255.46
		z"/>
	<ellipse class="st1" cx="720.35" cy="556.9" rx="1.5" ry="0.8"/>
	<ellipse class="st1" cx="748.9" cy="515.51" rx="1.5" ry="0.8"/>
	<ellipse class="st1" cx="731.72" cy="470.45" rx="1.5" ry="0.8"/>
	<line class="st1" x1="718" y1="531.45" x2="724.77" y2="530.54"/>
	<ellipse class="st1" cx="751.53" cy="502.5" rx="1.5" ry="0.8"/>
	<ellipse class="st1" cx="780.08" cy="461.11" rx="1.5" ry="0.8"/>
	<line class="st1" x1="689.33" y1="495.96" x2="696.09" y2="495.06"/>
	<ellipse class="st1" cx="764.31" cy="434.62" rx="1.5" ry="0.8"/>
	<ellipse class="st1" cx="626.83" cy="612.9" rx="1.5" ry="0.8"/>
	<ellipse class="st1" cx="655.38" cy="571.5" rx="1.5" ry="0.8"/>
	<ellipse class="st1" cx="638.2" cy="526.45" rx="1.5" ry="0.8"/>
	<line class="st1" x1="624.49" y1="587.44" x2="631.25" y2="586.54"/>
	<ellipse class="st1" cx="658.01" cy="558.5" rx="1.5" ry="0.8"/>
	<ellipse class="st1" cx="686.56" cy="517.1" rx="1.5" ry="0.8"/>
	<line class="st1" x1="595.81" y1="551.96" x2="602.58" y2="551.06"/>
	<ellipse class="st1" cx="670.79" cy="490.62" rx="1.5" ry="0.8"/>
	<ellipse class="st1" cx="840.31" cy="601.75" rx="2.56" ry="2.42"/>
	<ellipse class="st1" cx="821.7" cy="623.77" rx="0.93" ry="0.49"/>
	<ellipse class="st1" cx="811.06" cy="595.85" rx="0.93" ry="0.49"/>
	<line class="st1" x1="802.56" y1="633.64" x2="806.75" y2="633.08"/>
	<ellipse class="st1" cx="823.33" cy="615.71" rx="0.93" ry="0.49"/>
	<ellipse class="st1" cx="841.02" cy="590.06" rx="0.93" ry="0.49"/>
	<line class="st1" x1="784.8" y1="611.66" x2="788.99" y2="611.1"/>
	<ellipse class="st1" cx="831.25" cy="573.65" rx="0.93" ry="0.49"/>
	<ellipse class="st1" cx="764.91" cy="556.66" rx="1.93" ry="1.83"/>
	<ellipse class="st1" cx="737.48" cy="592.69" rx="0.7" ry="0.37"/>
	<ellipse class="st1" cx="750.85" cy="573.3" rx="0.7" ry="0.37"/>
	<ellipse class="st1" cx="742.8" cy="552.2" rx="0.7" ry="0.37"/>
	<line class="st1" x1="736.38" y1="580.77" x2="739.55" y2="580.34"/>
	<ellipse class="st1" cx="752.08" cy="567.21" rx="0.7" ry="0.37"/>
	<ellipse class="st1" cx="765.45" cy="547.83" rx="0.7" ry="0.37"/>
	<line class="st1" x1="722.96" y1="564.15" x2="726.12" y2="563.73"/>
	<ellipse class="st1" cx="758.06" cy="535.43" rx="0.7" ry="0.37"/>
	<ellipse class="st1" cx="575.07" cy="591.94" rx="1.93" ry="1.83"/>
	<ellipse class="st1" cx="561" cy="608.58" rx="0.7" ry="0.37"/>
	<ellipse class="st1" cx="562.24" cy="602.49" rx="0.7" ry="0.37"/>
	<ellipse class="st1" cx="575.61" cy="583.1" rx="0.7" ry="0.37"/>
	<ellipse class="st1" cx="568.22" cy="570.7" rx="0.7" ry="0.37"/>
	<ellipse class="st1" cx="692.19" cy="404.8" rx="1.93" ry="1.83"/>
	<ellipse class="st1" cx="664.76" cy="440.83" rx="0.7" ry="0.37"/>
	<ellipse class="st1" cx="678.13" cy="421.45" rx="0.7" ry="0.37"/>
	<ellipse class="st1" cx="670.08" cy="400.35" rx="0.7" ry="0.37"/>
	<line class="st1" x1="663.66" y1="428.91" x2="666.83" y2="428.49"/>
	<ellipse class="st1" cx="679.36" cy="415.36" rx="0.7" ry="0.37"/>
	<ellipse class="st1" cx="692.73" cy="395.97" rx="0.7" ry="0.37"/>
	<line class="st1" x1="650.23" y1="412.29" x2="653.4" y2="411.87"/>
	<ellipse class="st1" cx="685.34" cy="383.57" rx="0.7" ry="0.37"/>
	<ellipse class="st1" cx="765.7" cy="400.66" rx="1.93" ry="1.83"/>
	<ellipse class="st1" cx="738.27" cy="436.69" rx="0.7" ry="0.37"/>
	<ellipse class="st1" cx="751.64" cy="417.31" rx="0.7" ry="0.37"/>
	<ellipse class="st1" cx="743.59" cy="396.21" rx="0.7" ry="0.37"/>
	<line class="st1" x1="737.17" y1="424.77" x2="740.34" y2="424.35"/>
	<ellipse class="st1" cx="752.87" cy="411.22" rx="0.7" ry="0.37"/>
	<ellipse class="st1" cx="766.24" cy="391.83" rx="0.7" ry="0.37"/>
	<line class="st1" x1="723.74" y1="408.15" x2="726.91" y2="407.73"/>
	<ellipse class="st1" cx="758.85" cy="379.43" rx="0.7" ry="0.37"/>
	<ellipse class="st1" cx="807.69" cy="442.25" rx="1.93" ry="1.83"/>
	<ellipse class="st1" cx="780.26" cy="478.28" rx="0.7" ry="0.37"/>
	<ellipse class="st1" cx="793.63" cy="458.9" rx="0.7" ry="0.37"/>
	<ellipse class="st1" cx="785.58" cy="437.8" rx="0.7" ry="0.37"/>
	<line class="st1" x1="779.16" y1="466.36" x2="782.33" y2="465.94"/>
	<ellipse class="st1" cx="794.86" cy="452.81" rx="0.7" ry="0.37"/>
	<ellipse class="st1" cx="808.23" cy="433.42" rx="0.7" ry="0.37"/>
	<line class="st1" x1="765.74" y1="449.74" x2="768.9" y2="449.32"/>
	<ellipse class="st1" cx="800.85" cy="421.02" rx="0.7" ry="0.37"/>
	<ellipse class="st1" cx="844.27" cy="507.32" rx="1.93" ry="1.83"/>
	<ellipse class="st1" cx="816.84" cy="543.34" rx="0.7" ry="0.37"/>
	<ellipse class="st1" cx="830.21" cy="523.96" rx="0.7" ry="0.37"/>
	<ellipse class="st1" cx="822.17" cy="502.86" rx="0.7" ry="0.37"/>
	<line class="st1" x1="815.75" y1="531.42" x2="818.91" y2="531"/>
	<ellipse class="st1" cx="831.45" cy="517.87" rx="0.7" ry="0.37"/>
	<ellipse class="st1" cx="844.82" cy="498.48" rx="0.7" ry="0.37"/>
	<line class="st1" x1="802.32" y1="514.81" x2="805.49" y2="514.38"/>
	<ellipse class="st1" cx="837.43" cy="486.08" rx="0.7" ry="0.37"/>
	<ellipse class="st1" cx="620.75" cy="570.25" rx="1.93" ry="1.83"/>
	<ellipse class="st1" cx="593.32" cy="606.27" rx="0.7" ry="0.37"/>
	<ellipse class="st1" cx="606.69" cy="586.89" rx="0.7" ry="0.37"/>
	<ellipse class="st1" cx="598.65" cy="565.79" rx="0.7" ry="0.37"/>
	<line class="st1" x1="592.23" y1="594.35" x2="595.39" y2="593.93"/>
	<ellipse class="st1" cx="607.93" cy="580.8" rx="0.7" ry="0.37"/>
	<ellipse class="st1" cx="621.29" cy="561.42" rx="0.7" ry="0.37"/>
	<line class="st1" x1="578.8" y1="577.74" x2="581.97" y2="577.32"/>
	<ellipse class="st1" cx="613.91" cy="549.01" rx="0.7" ry="0.37"/>
	<ellipse class="st1" cx="675.99" cy="605.32" rx="1.93" ry="1.83"/>
	<ellipse class="st1" cx="648.56" cy="641.35" rx="0.7" ry="0.37"/>
	<ellipse class="st1" cx="661.92" cy="621.96" rx="0.7" ry="0.37"/>
	<ellipse class="st1" cx="653.88" cy="600.87" rx="0.7" ry="0.37"/>
	<line class="st1" x1="647.46" y1="629.43" x2="650.62" y2="629"/>
	<ellipse class="st1" cx="663.16" cy="615.87" rx="0.7" ry="0.37"/>
	<ellipse class="st1" cx="676.53" cy="596.49" rx="0.7" ry="0.37"/>
	<line class="st1" x1="634.03" y1="612.81" x2="637.2" y2="612.39"/>
	<ellipse class="st1" cx="669.14" cy="584.09" rx="0.7" ry="0.37"/>
	<ellipse class="st1" cx="614.04" cy="495.46" rx="1.93" ry="1.83"/>
	<ellipse class="st1" cx="586.61" cy="531.49" rx="0.7" ry="0.37"/>
	<ellipse class="st1" cx="599.98" cy="512.11" rx="0.7" ry="0.37"/>
	<ellipse class="st1" cx="591.93" cy="491.01" rx="0.7" ry="0.37"/>
	<line class="st1" x1="585.51" y1="519.57" x2="588.68" y2="519.15"/>
	<ellipse class="st1" cx="601.21" cy="506.02" rx="0.7" ry="0.37"/>
	<ellipse class="st1" cx="614.58" cy="486.63" rx="0.7" ry="0.37"/>
	<line class="st1" x1="572.08" y1="502.95" x2="575.25" y2="502.53"/>
	<ellipse class="st1" cx="607.19" cy="474.23" rx="0.7" ry="0.37"/>
	<ellipse class="st1" cx="653.71" cy="432.79" rx="1.93" ry="1.83"/>
	<ellipse class="st1" cx="626.28" cy="468.81" rx="0.7" ry="0.37"/>
	<ellipse class="st1" cx="639.64" cy="449.43" rx="0.7" ry="0.37"/>
	<ellipse class="st1" cx="631.6" cy="428.33" rx="0.7" ry="0.37"/>
	<line class="st1" x1="625.18" y1="456.89" x2="628.35" y2="456.47"/>
	<ellipse class="st1" cx="640.88" cy="443.34" rx="0.7" ry="0.37"/>
	<ellipse class="st1" cx="654.25" cy="423.96" rx="0.7" ry="0.37"/>
	<line class="st1" x1="611.75" y1="440.28" x2="614.92" y2="439.85"/>
	<ellipse class="st1" cx="646.86" cy="411.55" rx="0.7" ry="0.37"/>
	<ellipse class="st1" cx="711.33" cy="587.96" rx="1.93" ry="1.83"/>
	<ellipse class="st1" cx="683.9" cy="623.99" rx="0.7" ry="0.37"/>
	<ellipse class="st1" cx="697.27" cy="604.6" rx="0.7" ry="0.37"/>
	<ellipse class="st1" cx="689.22" cy="583.51" rx="0.7" ry="0.37"/>
	<line class="st1" x1="682.8" y1="612.07" x2="685.97" y2="611.65"/>
	<ellipse class="st1" cx="698.5" cy="598.51" rx="0.7" ry="0.37"/>
	<ellipse class="st1" cx="711.87" cy="579.13" rx="0.7" ry="0.37"/>
	<line class="st1" x1="669.37" y1="595.45" x2="672.54" y2="595.03"/>
	<ellipse class="st1" cx="704.48" cy="566.73" rx="0.7" ry="0.37"/>
	<ellipse class="st1" cx="763.45" cy="614.2" rx="1.93" ry="1.83"/>
	<ellipse class="st1" cx="749.38" cy="630.84" rx="0.7" ry="0.37"/>
	<ellipse class="st1" cx="741.34" cy="609.74" rx="0.7" ry="0.37"/>
	<line class="st1" x1="734.92" y1="638.3" x2="738.09" y2="637.88"/>
	<ellipse class="st1" cx="750.62" cy="624.75" rx="0.7" ry="0.37"/>
	<ellipse class="st1" cx="763.99" cy="605.36" rx="0.7" ry="0.37"/>
	<line class="st1" x1="721.49" y1="621.68" x2="724.66" y2="621.26"/>
	<ellipse class="st1" cx="756.6" cy="592.96" rx="0.7" ry="0.37"/>
	<ellipse class="st1" cx="855.72" cy="642.83" rx="0.7" ry="0.37"/>
	<ellipse class="st1" cx="869.09" cy="623.44" rx="0.7" ry="0.37"/>
	<ellipse class="st1" cx="861.05" cy="602.34" rx="0.7" ry="0.37"/>
	<line class="st1" x1="854.62" y1="630.9" x2="857.79" y2="630.48"/>
	<ellipse class="st1" cx="870.33" cy="617.35" rx="0.7" ry="0.37"/>
	<line class="st1" x1="841.2" y1="614.29" x2="844.36" y2="613.87"/>
	<ellipse class="st1" cx="838.31" cy="559.82" rx="1.93" ry="1.83"/>
	<ellipse class="st1" cx="810.88" cy="595.84" rx="0.7" ry="0.37"/>
	<ellipse class="st1" cx="824.24" cy="576.46" rx="0.7" ry="0.37"/>
	<ellipse class="st1" cx="816.2" cy="555.36" rx="0.7" ry="0.37"/>
	<line class="st1" x1="809.78" y1="583.92" x2="812.95" y2="583.5"/>
	<ellipse class="st1" cx="825.48" cy="570.37" rx="0.7" ry="0.37"/>
	<ellipse class="st1" cx="838.85" cy="550.99" rx="0.7" ry="0.37"/>
	<line class="st1" x1="796.35" y1="567.31" x2="799.52" y2="566.88"/>
	<ellipse class="st1" cx="831.46" cy="538.58" rx="0.7" ry="0.37"/>
	<ellipse class="st1" cx="778.41" cy="582.63" rx="0.67" ry="0.63"/>
	<ellipse class="st1" cx="768.89" cy="595.13" rx="0.24" ry="0.13"/>
	<ellipse class="st1" cx="773.53" cy="588.4" rx="0.24" ry="0.13"/>
	<ellipse class="st1" cx="770.74" cy="581.08" rx="0.24" ry="0.13"/>
	<line class="st4" x1="768.51" y1="590.99" x2="769.61" y2="590.84"/>
	<ellipse class="st1" cx="773.96" cy="586.29" rx="0.24" ry="0.13"/>
	<ellipse class="st1" cx="778.59" cy="579.56" rx="0.24" ry="0.13"/>
	<line class="st4" x1="763.85" y1="585.22" x2="764.95" y2="585.08"/>
	<ellipse class="st1" cx="776.03" cy="575.26" rx="0.24" ry="0.13"/>
	<ellipse class="st1" cx="773.13" cy="532.78" rx="1.93" ry="1.83"/>
	<ellipse class="st1" cx="745.7" cy="568.81" rx="0.7" ry="0.37"/>
	<ellipse class="st1" cx="759.06" cy="549.42" rx="0.7" ry="0.37"/>
	<ellipse class="st1" cx="751.02" cy="528.33" rx="0.7" ry="0.37"/>
	<line class="st1" x1="744.6" y1="556.89" x2="747.77" y2="556.47"/>
	<ellipse class="st1" cx="760.3" cy="543.33" rx="0.7" ry="0.37"/>
	<ellipse class="st1" cx="773.67" cy="523.95" rx="0.7" ry="0.37"/>
	<line class="st1" x1="731.17" y1="540.27" x2="734.34" y2="539.85"/>
	<ellipse class="st1" cx="766.28" cy="511.55" rx="0.7" ry="0.37"/>
	<ellipse class="st1" cx="659.11" cy="478.69" rx="1.93" ry="1.83"/>
	<ellipse class="st1" cx="631.68" cy="514.71" rx="0.7" ry="0.37"/>
	<ellipse class="st1" cx="645.05" cy="495.33" rx="0.7" ry="0.37"/>
	<ellipse class="st1" cx="637" cy="474.23" rx="0.7" ry="0.37"/>
	<line class="st1" x1="630.58" y1="502.79" x2="633.75" y2="502.37"/>
	<ellipse class="st1" cx="646.28" cy="489.24" rx="0.7" ry="0.37"/>
	<ellipse class="st1" cx="659.65" cy="469.85" rx="0.7" ry="0.37"/>
	<line class="st1" x1="617.15" y1="486.18" x2="620.32" y2="485.75"/>
	<ellipse class="st1" cx="652.26" cy="457.45" rx="0.7" ry="0.37"/>
	<path d="M686.46,248.66"/>
</g>
</svg>
